PathFileType	4	(X/Y/Z)	C:/Users/beibeiliu/ov580/test_trc/User1\sequence.9_training_dense_right.trc
DataRate	CameraRate	NumFrames	NumMarkers	Units	OrigDataRate	OrigDataStartFrame	OrigNumFrames
120	120	12	19	mm	120	1	314
Frame#	Time	ThumbCMC			ThumbMCP			ThumbIP			ThumbTip			IndexMCP			IndexPIP			IndexTip			MiddleMCP			MiddlePIP			MiddleTip			RingMCP			RingPIP			RingTip			PinkyMCP			PinkyPIP			PinkyTip			BackHand1			BackHand2			BackHand3	
		X0	Y0	Z0	X1	Y1	Z1	X2	Y2	Z2	X3	Y3	Z3	X4	Y4	Z4	X5	Y5	Z5	X6	Y6	Z6	X7	Y7	Z7	X8	Y8	Z8	X9	Y9	Z9	X10	Y10	Z10	X11	Y11	Z11	X12	Y12	Z12	X13	Y13	Z13	X14	Y14	Z14	X15	Y15	Z15	X16	Y16	Z16	X17	Y17	Z17	X18	Y18	Z18	
0	0	117.31	110.315	18.2634	90.5137	93.4518	9.71464	71.6887	81.6319	-6.3915	54.6096	73.4146	-13.4647	130.502	99.822	-65.742	129.071	94.2424	-94.3047	127.119	91.8582	-115.484	162.063	107.248	-72.7858	159.709	104.06	-100.34	166.213	101.685	-130.04	185.016	104.996	-63.9596	190.406	105.537	-91.0302	198.576	104.826	-115.93	209.609	93.3961	-42.08	223.334	91.1873	-55.4901	236.311	96.6373	-69.9356	178.898	119.615	-15.5379	177.567	136.027	15.7696	144.205	127.646	-1.28433	
1	0.00833333	114.415	108.815	13.7085	94.6853	92.7945	9.73239	72.3398	81.219	-7.74763	52.9285	73.918	-9.33799	130.093	99.3221	-65.9382	126.267	95.8912	-94.0165	130.245	92.1961	-119.628	157.914	107.365	-72.29	158.959	104.864	-104.874	165.484	103.332	-132.505	182.384	106.036	-66.9501	193.679	106.694	-88.0415	196.523	105.461	-116.454	208.562	94.0376	-42.125	224.419	92.2166	-56.9892	235.752	96.1927	-76.2883	178.115	119.488	-15.7939	177.416	135.208	15.1865	142.99	127.748	-4.892	
2	0.0166667	113.87	110.41	18.9602	94.134	91.5905	7.64151	71.4695	81.2776	-6.24286	54.9019	72.9531	-12.0808	130.158	99.4198	-66.4188	125.377	95.8229	-90.1596	130.534	92.5974	-116.342	157.891	107.786	-77.4726	158.25	105.507	-104.496	165.608	103.691	-134.047	184.717	106.974	-65.3296	189.216	107.075	-88.8654	196.761	105.452	-115.523	209.228	95.7626	-44.0468	222.923	92.0762	-55.1624	233.728	97.0553	-73.0652	178.707	120.074	-17.1465	180.098	136.011	12.074	144.658	128.887	-3.62677	
3	0.025	112.391	109.993	16.388	92.5023	93.3388	10.8247	71.5721	81.139	-7.67627	52.5125	72.9241	-11.1657	127.664	100.32	-64.4171	124.997	95.8966	-94.3231	131.055	93.4021	-117.914	161.343	109.383	-74.9669	161.923	106.739	-105.253	167.56	103.82	-132.091	182.788	108.702	-67.2161	190.521	109.081	-92.6491	194.987	106.134	-116.405	208.323	96.53	-43.1489	220.338	92.7796	-54.4086	236.677	98.2938	-75.2887	175.435	122.309	-17.7089	178.53	135.386	15.3295	140.774	127.222	-6.52201	
4	0.0333333	111.16	110.602	15.3325	93.5435	93.0349	9.72628	72.0008	81.9769	-5.87933	53.1226	72.5491	-11.7669	128.843	101.314	-68.0081	124.462	97.7958	-90.8834	130.827	93.8441	-116.844	156.11	110.152	-71.6356	159.234	107.127	-104.995	163.411	105.536	-130.365	181.501	108.307	-62.2386	187.328	109.49	-93.5791	194.595	108.527	-117.765	208.362	97.4758	-39.9674	222.994	94.8359	-58.1818	236.724	98.7057	-75.5659	175.948	123.123	-14.1801	180.98	138.239	14.8414	145.937	129.371	-2.65298	
5	0.0416667	112.034	109.568	14.4608	95.7043	91.8298	8.57056	75.9088	81.5534	-2.67272	56.1581	72.6107	-9.54121	125.875	100.964	-66.4047	128.36	97.842	-93.6863	124.216	95.0217	-119.434	158.326	111.055	-72.0587	160.857	109.221	-101.608	162.094	106.392	-128.978	180.639	109.689	-66.2492	189.51	111.362	-90.3168	191.656	108.061	-114.591	211.099	98.3465	-42.8923	219.543	96.2446	-56.6182	238.15	102.464	-75.9465	180.269	122.601	-16.8845	178.433	136.515	12.3145	145.571	128.624	-6.46977	
6	0.05	113.947	109.627	14.8567	92.1976	93.4597	10.6466	70.1578	81.9398	-3.30774	53.1275	72.4456	-6.6027	126.492	101.712	-67.2358	122.387	98.243	-94.1054	128.919	95.7974	-118.901	154.605	112.345	-73.8727	157.363	109.878	-102.383	161.633	107.661	-131.641	183.811	111.872	-66.2256	189.686	112.611	-90.9612	194.102	110.684	-114.682	206.778	99.7779	-42.6106	223.579	97.0451	-57.2385	237.501	103.27	-77.2586	175.739	125.221	-15.1006	175.395	137.632	14.0863	142.619	128.73	-5.9573	
7	0.0583333	113.36	109.711	19.2971	92.8126	91.7073	10.6227	72.3012	79.9262	-2.35329	52.9901	70.6721	-7.70855	124.199	101.599	-67.393	125.26	97.1197	-95.8947	125.857	95.8104	-121.171	156.476	111.619	-75.7286	157.132	109.529	-104.106	163.909	108.692	-135.65	184.422	111.477	-67.1469	190.558	113.213	-92.3856	190.82	111.652	-115.195	206.583	101.272	-41.9336	218.935	98.5267	-56.6525	235.533	106.122	-75.0886	174.713	125.284	-19.7699	175.576	139.138	15.4243	139.868	129.522	-3.16148	
8	0.0666667	115.681	107.214	14.5773	93.5407	90.2128	11.4756	75.5419	78.6583	-1.29319	55.343	68.8996	-5.3736	126.217	100.454	-68.3253	123.528	97.7057	-93.735	127.042	95.3647	-116.242	156.75	112.269	-74.1647	157.76	109.686	-106.117	160.382	107.749	-129.699	180.361	111.93	-63.6152	186.597	112.575	-90.0019	192.469	112.872	-117.807	208.703	102.052	-43.1368	219.647	98.8664	-59.6536	235.125	105.109	-72.6125	178.841	126.23	-18.1043	178.753	138.188	12.6383	143.522	128.718	-1.97523	
9	0.075	113.996	108.341	19.5473	93.9465	87.8861	11.5355	75.0634	77.3962	-0.252551	54.8942	67.7718	-6.06116	127.9	101.051	-68.0042	121.877	96.5779	-89.8058	125.111	94.1133	-118.968	153	112.339	-76.7007	156.476	109.816	-105.649	158.307	108.665	-130.301	181.1	112.452	-63.6875	185.105	112.943	-90.215	190.229	112.43	-116.501	210.852	102.497	-42.5577	220.421	100.045	-58.5594	231.543	107.475	-76.4646	174.06	123.739	-14.961	178.468	137.154	11.8365	144.861	130.471	-1.64729	
10	0.0833333	116.776	107.578	15.4802	92.2444	87.9916	9.73522	72.7248	75.5815	-0.358893	55.7609	65.2412	-7.15988	126.194	101.066	-64.6276	121.51	96.1797	-94.3241	127.887	94.7533	-117.056	155.869	112.009	-76.3302	158.715	111.128	-102.365	160.487	108.535	-131.388	183.325	113.392	-67.7237	186.837	114.5	-91.4648	191.094	113.309	-116.876	211.962	102.251	-42.9469	220.867	100.435	-59.3993	234.997	108.455	-79.5357	174.836	124.889	-14.1792	177.404	139.838	14.606	144.772	128.16	-1.295	
11	0.0916667	117.114	107.763	19.7303	98.7114	87.8062	9.39667	73.6937	74.1679	-4.32428	54.3453	64.6119	-7.89933	125.35	99.8034	-67.2503	124.58	96.4349	-94.3435	125.862	92.9255	-120.175	154.137	111.474	-73.4723	157.695	110.95	-104.423	157.563	108.848	-132.316	183.435	113.567	-67.3449	188.952	114.278	-91.5545	191.414	112.977	-119.455	210.234	102.034	-48.5554	224.699	101.143	-61.7046	237.383	107.117	-77.8273	178.175	124.123	-19.746	178.205	138.078	12.8631	141.915	126.363	-5.47116	
